# xmcd
#
# Track frame offsets:
#	150
#	11345
#	26542
#	44347
#	55714
#	69700
#	86955
#	97617
#	111607
#	125602
#	139670
#	153972
#	166080
#	176940
#	190842
#	204502
#	217765
#	232017
#	245715
#	259162
#	278575
#	291632
#	306632
#	319502
#	333235
#
# Disc length: 4598 seconds
#
# Revision: 0
# Processed by: cddbd v1.5.1PL0 Copyright (c) Steve Scherf et al.
# Submitted via: dBpowerAMP V4.0
#
DISCID=7011f419
DTITLE=Various Artist - Mega Italie cd1
DYEAR=1900
DGENRE=AlternRock
TTITLE0=Toto Cutugno - Lítaliano
TTITLE1=Drupi - Vado Via ´95
TTITLE2=Bobby Solo - Una Lacrima Sul Viso
TTITLE3=Domenico Modugno - Piange...Il Telefono
TTITLE4=Flavio - Caruso
TTITLE5=Giorgo Gaber - Parlami Dámore Mariu
TTITLE6=Irene Fargo - Come Una Turandot
TTITLE7=Mina - Le Mille Bolle Blu
TTITLE8=Patrick Samson - Soli Si Muore
TTITLE9=Nicola Di Bari - La Piu Bella Del Mondo
TTITLE10=Pino Dángio
TTITLE11=Elio Gandolfi - La Vita
TTITLE12=Ivan Graziani - Maledette Malelingue
TTITLE13=Lighea - Rivoglio La Mia Vita
TTITLE14=Luca Sepe - Un Po Di Te
TTITLE15=I Santo California - Tornero
TTITLE16=Meccano - Una Stella Se Vuoi
TTITLE17=Adriano Celentano - 24 Mila Baci
TTITLE18=Gepy and Gepy - Angelo Blu
TTITLE19=Angelo Fabiani - Arrivederci
TTITLE20=Pino Donaggio - Lúltimo Romantico
TTITLE21=Clio - Non Siamo Angeli
TTITLE22=Flavia Fortunato - Canto Per Te
TTITLE23=Sandro Giacobbe - Lo Vorrei
TTITLE24=Marino Marini - Come Prima
EXTD=
EXTT0=
EXTT1=
EXTT2=
EXTT3=
EXTT4=
EXTT5=
EXTT6=
EXTT7=
EXTT8=
EXTT9=
EXTT10=
EXTT11=
EXTT12=
EXTT13=
EXTT14=
EXTT15=
EXTT16=
EXTT17=
EXTT18=
EXTT19=
EXTT20=
EXTT21=
EXTT22=
EXTT23=
EXTT24=
PLAYORDER=
